<svg width="33" height="32" viewBox="0 0 33 32" fill="none" xmlns="http://www.w3.org/2000/svg">
<mask id="mask0_106_64" style="mask-type:luminance" maskUnits="userSpaceOnUse" x="0" y="0" width="33" height="32">
<path d="M24.12 0H8.04C3.59963 0 0 3.58172 0 8V24C0 28.4183 3.59963 32 8.04 32H24.12C28.5604 32 32.16 28.4183 32.16 24V8C32.16 3.58172 28.5604 0 24.12 0Z" fill="white"/>
</mask>
<g mask="url(#mask0_106_64)">
<path d="M13.1956 13.885C15.9889 12.5347 18.175 10.2434 19.43 7.3792C18.6203 6.51993 17.5677 5.90617 16.4342 5.53792L15.827 5.33333C15.7865 5.41517 15.746 5.53793 15.746 5.61976C14.7744 8.40213 12.7907 10.6525 10.1188 11.921C8.25661 12.8212 6.88016 14.4579 6.23241 16.4219L6.03 17.0356C6.11097 17.0765 6.23242 17.1175 6.31338 17.1175C7.08257 17.4039 7.85173 17.7721 8.58042 18.2222C9.59252 16.3809 11.2118 14.8261 13.1956 13.885Z" fill="#5972EF"/>
<path d="M24.9885 13.7778C23.4582 16.0765 21.349 17.9236 18.7435 19.155C16.6342 20.1401 15.0213 21.9873 14.2768 24.2039L14.07 24.9017C14.8558 25.5995 15.807 26.1331 16.841 26.4615L17.4613 26.6667C17.5028 26.5846 17.5441 26.4615 17.5441 26.3793C18.5367 23.5881 20.5632 21.3305 23.2928 20.0581C25.1953 19.155 26.6428 17.5131 27.2632 15.5429L27.47 14.9271C26.6015 14.6809 25.7743 14.2703 24.9885 13.7778Z" fill="#5972EF"/>
<path d="M12.7924 22.6667C13.8172 20.2351 15.7028 18.2493 18.1213 17.1145C20.3348 16.0608 22.1795 14.4397 23.4502 12.4539C22.5074 11.5623 21.7286 10.5491 21.1547 9.33333C19.638 12.0891 17.2605 14.3181 14.3501 15.6961C12.6694 16.4661 11.3167 17.8035 10.4969 19.4245C11.3987 20.2756 12.1366 21.3293 12.7104 22.5045C12.7104 22.5045 12.7514 22.5856 12.7924 22.6667Z" fill="#5972EF"/>
</g>
</svg>
